<?xml version="1.0" encoding="utf-8"?>
<!-- Generator: Adobe Illustrator 27.5.0, SVG Export Plug-In . SVG Version: 6.00 Build 0)  -->
<svg version="1.1" xmlns="http://www.w3.org/2000/svg" xmlns:xlink="http://www.w3.org/1999/xlink" x="0px" y="0px"
	 viewBox="0 0 500 500" style="enable-background:new 0 0 500 500;" xml:space="preserve">
<g id="Floor">
	<ellipse id="Floor_4_" style="fill:#F5F5F5;" cx="249.99" cy="336.359" rx="238.752" ry="137.843"/>
</g>
<g id="Shadows">
	<ellipse id="Shadow_1_" style="fill:#E0E0E0;" cx="385.32" cy="400.953" rx="46.395" ry="26.786"/>
	<path id="Shadow_16_" style="fill:#E0E0E0;" d="M45.732,334.757l123.855,71.508c2.819,1.627,7.389,1.627,10.208,0l233.236-134.659
		c2.819-1.628,2.819-4.266,0-5.894l-123.854-71.509c-2.819-1.627-7.389-1.628-10.208,0L45.732,328.863
		C42.913,330.491,42.913,333.129,45.732,334.757z"/>
</g>
<g id="Clouds">
	<g id="Clouds_4_">
		<g>
			<g id="XMLID_18_">
				<path style="fill:#EBEBEB;" d="M94.789,67.786l-7.005,4.045c0.035-0.358,0.059-0.715,0.059-1.066v-2.343
					c0-4.17-2.536-6.087-5.663-4.281c-1.267,0.731-2.432,1.965-3.375,3.446c-0.512-5.289-4.075-7.561-8.403-5.063
					c-4.679,2.701-8.472,9.949-8.472,16.188v3.506c0,1.616,0.259,3,0.717,4.125l-5.818,3.359c-1.735,1.002-3.141,3.689-3.141,6.002
					c0,2.313,1.406,3.376,3.141,2.375l37.96-21.916c1.735-1.002,3.141-3.689,3.141-6.002C97.93,67.848,96.524,66.785,94.789,67.786z
					"/>
			</g>
			<g id="XMLID_17_">
				<path style="fill:#EBEBEB;" d="M139.799,80.022l-5.287,3.052c0.026-0.27,0.044-0.539,0.044-0.804v-1.769
					c0-3.147-1.913-4.594-4.274-3.231c-0.956,0.552-1.835,1.483-2.547,2.601c-0.387-3.992-3.076-5.706-6.342-3.821
					C117.863,78.09,115,83.559,115,88.268v2.646c0,1.22,0.195,2.264,0.541,3.114l-4.391,2.535c-1.309,0.756-2.371,2.784-2.371,4.53
					c0,1.746,1.061,2.548,2.371,1.792l28.649-16.541c1.309-0.756,2.371-2.784,2.371-4.53
					C142.17,80.068,141.109,79.266,139.799,80.022z"/>
			</g>
		</g>
	</g>
</g>
<g id="Plants">
	<g id="Plants_2_">
		<g id="XMLID_2894_">
			<g id="XMLID_2897_">
				<path id="XMLID_2898_" style="fill:#27DEBF;" d="M415.729,370.779c0,0-0.484-14.032,4.786-25.762
					c5.271-11.73,13.707-19.818,22.404-21.823c8.696-2.005,17.008,5.034,8.42,11.994c-8.588,6.961-24.473,15.123-29.077,37.063
					L415.729,370.779z"/>
			</g>
			<g id="XMLID_2899_" style="opacity:0.15;">
				<path id="XMLID_2900_" d="M415.729,370.779c0,0-0.484-14.032,4.786-25.762c5.271-11.73,13.707-19.818,22.404-21.823
					c8.696-2.005,17.008,5.034,8.42,11.994c-8.588,6.961-24.473,15.123-29.077,37.063L415.729,370.779z"/>
			</g>
			<g id="XMLID_2895_">
				<path id="XMLID_2896_" style="fill:#FFFFFF;" d="M417.775,366.812c-0.033-0.001-0.065-0.005-0.097-0.013
					c-0.255-0.062-0.412-0.319-0.35-0.574c5.883-24.252,22.142-36.432,29.917-39.483c0.243-0.098,0.519,0.025,0.616,0.269
					c0.096,0.245-0.024,0.52-0.269,0.616c-7.616,2.989-23.549,14.952-29.341,38.823
					C418.198,366.672,417.995,366.819,417.775,366.812z"/>
			</g>
		</g>
		<g id="XMLID_2883_">
			<g id="XMLID_2891_">
				<g id="XMLID_2892_">
					<path id="XMLID_2893_" style="fill:#27DEBF;" d="M456.225,361.671c-0.715,1.732-2.56,2.673-4.283,3.42
						c-1.712,0.74-3.588,1.548-4.486,3.192c-1.808,3.32,1.422,7.837-0.527,11.076c-0.818,1.357-2.386,2.103-3.939,2.424
						c-1.29,0.277-2.609,0.309-3.921,0.454c-0.633,0.004-1.26-0.026-1.872-0.096c-1.81-0.215-3.769-0.247-5.397,0.719
						c-2.561,1.529-3.273,4.833-4.786,7.405c-1.813,3.08-5.108,5.152-8.612,5.723c-2.939,0.467-7.375-0.078-8.171-1.362
						c-0.605-0.976,1.044-4.01,1.05-5.159c0.017-2.946,0.314-5.89,0.883-8.78c0.277-1.408,0.505-2.553,0.457-3.991
						c-0.05-1.506-0.09-3.012-0.12-4.519c-0.032-1.631-0.448-2.901,0.096-4.557c0.518-1.58,1.48-3.002,2.435-4.346
						c0.949-1.335,1.911-2.662,2.884-3.979c1.148-1.555,2.328-3.113,3.823-4.338c2.595-2.125,6.094-3.107,9.415-2.641
						c2.753,0.386,5.475,1.857,8.297,1.653c2.745-0.198,5.418-1.004,8.229-0.883c2.94,0.127,5.967,1.293,7.707,3.768
						C456.368,358.244,456.872,360.099,456.225,361.671z"/>
				</g>
			</g>
			<g id="XMLID_2889_">
				<path id="XMLID_2890_" style="fill:#FFFFFF;" d="M412.464,387.252c-0.011-0.002-0.023-0.004-0.034-0.007
					c-0.226-0.054-0.366-0.281-0.312-0.508c6.155-25.799,33.051-30.21,39.379-29.92c0.229,0.013,0.412,0.208,0.402,0.441
					c-0.011,0.233-0.208,0.413-0.44,0.402c-6.189-0.284-32.497,4.032-38.521,29.274
					C412.887,387.149,412.678,387.286,412.464,387.252z"/>
			</g>
			<g id="XMLID_2884_">
				<path id="XMLID_2885_" style="fill:#FFFFFF;" d="M442.114,373.483c-0.082-0.013-0.161-0.05-0.226-0.112
					c-0.069-0.067-7.132-6.673-18.505-4.692c-0.229,0.037-0.448-0.113-0.488-0.343s0.114-0.448,0.343-0.488
					c11.813-2.055,19.161,4.845,19.234,4.915c0.168,0.161,0.173,0.428,0.013,0.596C442.385,373.461,442.246,373.503,442.114,373.483
					z"/>
			</g>
		</g>
	</g>
	<g id="Plants_1_">
		<g id="XMLID_2878_">
			<path id="XMLID_2882_" style="fill:#27DEBF;" d="M63.789,303.303c2.326-14.27-1.521-44.773-20.823-43.357
				c-4.193,0.308-8.519,4.548-3.968,10.546c3.664,4.914,7.51,9.706,10.507,15.077c3.152,5.648,2.975,12.255,4.123,18.59
				c0.483,2.665,1.485,5.883,4.147,6.383c1.665,0.313,3.361-0.7,4.326-2.092c0.965-1.392,1.338-3.102,1.626-4.771
				C63.747,303.555,63.768,303.43,63.789,303.303z"/>
			<path id="XMLID_2881_" style="opacity:0.15;" d="M63.789,303.303c2.326-14.27-1.521-44.773-20.823-43.357
				c-4.193,0.308-8.519,4.548-3.968,10.546c3.664,4.914,7.51,9.706,10.507,15.077c3.152,5.648,2.975,12.255,4.123,18.59
				c0.483,2.665,1.485,5.883,4.147,6.383c1.665,0.313,3.361-0.7,4.326-2.092c0.965-1.392,1.338-3.102,1.626-4.771
				C63.747,303.555,63.768,303.43,63.789,303.303z"/>
			<g id="XMLID_2879_">
				<path id="XMLID_2880_" style="fill:#FFFFFF;" d="M57.747,302.107c-0.261-0.076-0.415-0.349-0.342-0.612
					c4.648-16.882-8.156-35.133-11.78-37.96c-0.218-0.17-0.256-0.485-0.087-0.702c0.171-0.219,0.484-0.254,0.702-0.087
					c3.735,2.914,16.925,21.599,12.13,39.014c-0.074,0.267-0.349,0.423-0.615,0.35C57.752,302.108,57.749,302.107,57.747,302.107z"
					/>
			</g>
		</g>
		<g id="XMLID_1163_">
			<path id="XMLID_2877_" style="fill:#27DEBF;" d="M56.034,292.025c0.001-0.267-0.004-0.533-0.017-0.8
				c-0.095-1.978-0.65-3.998-1.943-5.497c-0.494-0.573-1.083-1.056-1.698-1.496c-2.222-1.59-4.827-2.641-7.531-3.038
				c-1.216-0.179-2.461-0.23-3.631-0.608c-3.399-1.098-6.01-4.39-8.931-6.349c-3.32-2.227-11.389-4.211-14.102,0.079
				c-1.977,3.125,4.031,7.222,8.085,11.363c4.054,4.141,6.325,8.275,3.399,12.242c-2.507,3.399-3.143,6.863,2.164,10.558
				c4.716,3.283,11.453,2.47,11.63,8.294c0.102,3.32,3.734,8.336,9.255,7.462c1.885-0.298,4.12-2.53,5.255-3.948
				c1.286-1.607,2.064-3.463,2.575-5.44c0.718-2.778,0.874-5.77,0.378-8.6c-0.238-1.359-0.602-2.888-1.342-4.073
				c-0.817-1.31-2.347-2.298-3.516-3.315c-0.169-0.147-0.341-0.298-0.45-0.492c-0.206-0.366-0.157-0.817-0.1-1.234
				C55.752,295.437,56.026,293.733,56.034,292.025z"/>
			<g id="XMLID_2842_">
				<path id="XMLID_2861_" style="fill:#FFFFFF;" d="M54.442,315.552c-0.199-0.058-0.348-0.236-0.359-0.454
					c-0.827-16.02-21.139-35.68-29.493-39.691c-0.249-0.119-0.354-0.418-0.235-0.667c0.12-0.25,0.425-0.354,0.667-0.235
					c8.513,4.087,29.215,24.159,30.059,40.54c0.015,0.276-0.197,0.511-0.473,0.525C54.55,315.574,54.494,315.567,54.442,315.552z"/>
			</g>
			<g id="XMLID_2835_">
				<path id="XMLID_2841_" style="fill:#FFFFFF;" d="M35.194,301.297c-0.143-0.042-0.267-0.148-0.326-0.299
					c-0.1-0.257,0.028-0.547,0.285-0.647c0.268-0.104,6.632-2.521,14.583-0.394c0.003,0.001,0.007,0.002,0.01,0.003
					c0.261,0.076,0.414,0.346,0.343,0.61c-0.071,0.266-0.346,0.425-0.613,0.353c-7.637-2.044-13.898,0.335-13.96,0.359
					C35.409,301.324,35.296,301.326,35.194,301.297z"/>
			</g>
		</g>
	</g>
</g>
<g id="Device">
	<g id="Mobile">
		<g id="Device_3_">
			<path id="XMLID_583_" style="fill:#27DEBF;" d="M54.003,310.086c-1.737,1.346-1.548,3.255,0.559,4.464l115.321,66.59
				c2.316,1.329,6.075,1.33,8.389-0.006l220.395-127.245c2.133-1.231,2.307-3.173,0.493-4.512c2.083,1.476,3.701,4.453,3.702,6.94
				l0.007,5.543c0.008,2.674-1.871,5.93-4.194,7.271l-220.386,127.24c-2.323,1.341-6.082,1.34-8.394-0.004L54.57,329.793
				c-2.316-1.329-4.197-4.585-4.195-7.265l-0.012-5.553C50.368,314.522,51.945,311.579,54.003,310.086z"/>
			<path id="XMLID_582_" style="opacity:0.5;" d="M54.003,310.086c-1.737,1.346-1.548,3.255,0.559,4.464l115.321,66.59
				c2.316,1.329,6.075,1.33,8.389-0.006l220.395-127.245c2.133-1.231,2.307-3.173,0.493-4.512c2.083,1.476,3.701,4.453,3.702,6.94
				l0.007,5.543c0.008,2.674-1.871,5.93-4.194,7.271l-220.386,127.24c-2.323,1.341-6.082,1.34-8.394-0.004L54.57,329.793
				c-2.316-1.329-4.197-4.585-4.195-7.265l-0.012-5.553C50.368,314.522,51.945,311.579,54.003,310.086z"/>
			<path id="XMLID_1086_" style="fill:#27DEBF;" d="M54.562,314.55l115.321,66.59c2.316,1.329,6.075,1.33,8.389-0.006
				l220.395-127.245c2.314-1.336,2.317-3.508,0-4.837l-115.321-66.59c-2.316-1.329-6.075-1.33-8.388,0.006L54.562,309.713
				C52.248,311.049,52.246,313.221,54.562,314.55z M257.221,199.678c1.981-1.144,4.046-0.482,6.031,0.669l104.86,60.543
				c1.98,1.142,1.988,3.004-0.002,4.153l-171.594,99.07c-1.99,1.149-5.207,1.14-7.197,0.003l-104.85-60.548
				c-1.995-1.146-1.988-3.003-0.007-4.147L257.221,199.678z"/>
			<path id="XMLID_577_" style="opacity:0.3;" d="M54.562,314.55l115.321,66.59c2.316,1.329,6.075,1.33,8.389-0.006l220.395-127.245
				c2.314-1.336,2.317-3.508,0-4.837l-115.321-66.59c-2.316-1.329-6.075-1.33-8.388,0.006L54.562,309.713
				C52.248,311.049,52.246,313.221,54.562,314.55z M257.221,199.678c1.981-1.144,4.046-0.482,6.031,0.669l104.86,60.543
				c1.98,1.142,1.988,3.004-0.002,4.153l-171.594,99.07c-1.99,1.149-5.207,1.14-7.197,0.003l-104.85-60.548
				c-1.995-1.146-1.988-3.003-0.007-4.147L257.221,199.678z"/>
			<path id="XMLID_1085_" style="fill:#27DEBF;" d="M399.159,249.377c2.083,1.476,3.701,4.453,3.702,6.94l0.007,5.543
				c-0.002,2.68-1.871,5.93-4.194,7.271l-220.386,127.24c-1.162,0.671-2.684,1.003-4.206,1.006l-0.008-15.243
				c1.522-0.003,3.044-0.336,4.196-1.001l220.395-127.245C400.799,252.657,400.974,250.716,399.159,249.377z"/>
			<path id="XMLID_576_" style="opacity:0.6;" d="M399.159,249.377c2.083,1.476,3.701,4.453,3.702,6.94l0.007,5.543
				c-0.002,2.68-1.871,5.93-4.194,7.271l-220.386,127.24c-1.162,0.671-2.684,1.003-4.206,1.006l-0.008-15.243
				c1.522-0.003,3.044-0.336,4.196-1.001l220.395-127.245C400.799,252.657,400.974,250.716,399.159,249.377z"/>
			<path id="XMLID_575_" d="M329.945,222.296c-1.553-0.897-1.553-2.35,0-3.247c1.553-0.897,4.071-0.897,5.623,0
				c1.553,0.896,1.553,2.35,0,3.247C334.016,223.192,331.498,223.192,329.945,222.296z"/>
			<g id="XMLID_574_">
				<path style="fill:#E6E6E6;" d="M123.119,346.139c-2.488,0-4.976-0.547-6.871-1.641l0,0c-1.93-1.114-2.993-2.625-2.993-4.255
					c0-1.63,1.063-3.142,2.993-4.256c3.789-2.188,9.954-2.188,13.742,0c1.93,1.114,2.993,2.626,2.993,4.256
					c0,1.63-1.063,3.141-2.993,4.255C128.096,345.592,125.607,346.139,123.119,346.139z M123.12,335.332
					c-2.307,0-4.615,0.507-6.371,1.521c-1.607,0.928-2.493,2.132-2.493,3.39c0,1.257,0.885,2.461,2.493,3.389l0,0
					c3.513,2.03,9.229,2.029,12.742,0c1.607-0.928,2.493-2.131,2.493-3.389c0-1.258-0.885-2.462-2.493-3.39
					C127.734,335.839,125.427,335.332,123.12,335.332z"/>
			</g>
			<path id="XMLID_573_" d="M332.721,233.066l-21.708-12.533c-1.295-0.748-1.36-1.923-0.145-2.624
				c1.215-0.702,3.25-0.664,4.545,0.084l21.708,12.534c1.295,0.748,1.36,1.922,0.145,2.624
				C336.051,233.852,334.016,233.814,332.721,233.066z"/>
			<path id="XMLID_572_" style="fill:#FAFAFA;" d="M257.221,199.678c1.981-1.144,4.046-0.482,6.031,0.669l104.86,60.543
				c1.98,1.142,1.988,3.004-0.002,4.153l-171.594,99.07c-1.99,1.149-5.207,1.14-7.197,0.003l-104.85-60.548
				c-1.995-1.146-1.988-3.003-0.007-4.147L257.221,199.678z"/>
		</g>
	</g>
</g>
<g id="Character_Bubbles">
	<g id="Character_Bubble_2_">
		<g id="Speach_Bubble_5_">
			<g id="XMLID_1083_">
				<g id="XMLID_1084_">
					<g id="XMLID_1091_">
						<path id="XMLID_1094_" style="fill:#27DEBF;" d="M90.772,265.091l-3.449-1.972c-0.094-0.043-0.171-0.103-0.222-0.197
							l-2.164-5.224l2.815-1.626l-0.086,0.248L90.772,265.091z"/>
					</g>
					<g id="XMLID_558_" style="opacity:0.4;">
						<path id="XMLID_559_" d="M90.772,265.091l-3.449-1.972c-0.094-0.043-0.171-0.103-0.222-0.197l-2.164-5.224l2.815-1.626
							l-0.086,0.248L90.772,265.091z"/>
					</g>
					<path id="XMLID_1090_" style="fill:#27DEBF;" d="M87.323,256.305l3.281,8.617c0.21,0.363,0.749,0.312,0.886-0.084l3.467-12.944
						L87.323,256.305z"/>
					<path id="XMLID_556_" style="opacity:0.2;" d="M87.323,256.305l3.281,8.617c0.21,0.363,0.749,0.312,0.886-0.084l3.467-12.944
						L87.323,256.305z"/>
					<path id="XMLID_1089_" style="fill:#27DEBF;" d="M140.108,136.143c0-1.462-1.026-3.24-2.292-3.971l-1.867-1.078
						c-1.266-0.731-3.319-0.731-4.585,0L73.42,164.553c-1.266,0.731-2.293,2.509-2.293,3.971v87.049c0,1.462,1.027,3.24,2.293,3.971
						l1.867,1.078c1.266,0.731,3.319,0.731,4.585,0l57.798-33.406c1.497-0.865,2.445-2.773,2.445-4.235L140.108,136.143z"/>
					<path style="opacity:0.3;" d="M79.999,260.511l57.671-33.296c1.351-0.78,2.445-2.676,2.445-4.235l0-86.659
						c0-1.559-1.095-2.192-2.446-1.413l-57.67,33.267c-1.351,0.779-2.446,2.675-2.446,4.234l0.001,86.69
						C77.554,260.659,78.648,261.291,79.999,260.511z"/>
					<path style="fill:#27DEBF;" d="M86.357,248.813l44.954-25.954c1.023-0.591,1.853-2.027,1.853-3.209l0.001-71.975
						c0-1.181-0.829-1.66-1.853-1.07l-44.955,25.955c-1.023,0.591-1.853,2.027-1.853,3.209l0,71.974
						C84.504,248.925,85.334,249.404,86.357,248.813z"/>
					<path id="XMLID_1088_" style="opacity:0.5;" d="M71.127,255.572c0,1.462,1.027,3.24,2.293,3.971l1.867,1.078
						c1.144,0.661,2.925,0.726,4.193,0.192c-1.079,0.408-1.901-0.208-1.901-1.516l0-87.049c0-0.731,0.257-1.541,0.671-2.26
						l-6.452-3.725c-0.415,0.718-0.671,1.528-0.671,2.259V255.572z"/>
					<path id="XMLID_1087_" style="opacity:0.1;" d="M140.099,136.011c-0.021-1.111-1.053-1.922-2.43-1.103L79.87,168.28
						c-0.631,0.364-1.209,0.984-1.615,1.711l-6.449-3.722c0.417-0.727,0.984-1.348,1.615-1.711l57.938-33.462
						c1.273-0.727,3.326-0.727,4.589,0l1.872,1.08C138.899,132.796,140.069,134.49,140.099,136.011z"/>
				</g>
			</g>
		</g>
		<g id="XMLID_543_">
			<g id="XMLID_2946_">
				<path id="XMLID_2947_" style="fill:#263238;" d="M133.781,195.052c-6.143,0.178-22.553-0.731-22.553-0.731l0,0
					c-10.335-5.723-16.748-16.606-16.748-28.42v-5.089c0-9.648,6.577-18.235,16.007-20.271c12.249-2.644,23.064,6.617,23.066,18.405
					c0,2.499,0.435,4.753,2.325,6.568c1.003,0.963,2.243,1.633,3.434,2.35c1.709,1.029,3.373,2.202,4.593,3.78
					s1.953,3.622,1.6,5.585c-0.228,1.265-0.893,2.427-1.769,3.367c-0.144,0.154-0.303,0.327-0.3,0.538
					c0.002,0.151,0.089,0.285,0.171,0.412c1.642,2.548,2.324,5.932,0.946,8.633c-0.869,1.704-2.467,2.961-4.229,3.706
					c-1.762,0.745-3.689,1.018-5.599,1.127C134.411,195.029,134.096,195.043,133.781,195.052z"/>
			</g>
			<path id="XMLID_555_" style="fill:#B16668;" d="M103.654,197.475c-1.218,7.897-7.568,10.114-7.882,10.248
				c-0.008,0-0.016,0.008-0.016,0.008l-8.434,40.526l-2.818,1.626L84.4,201.896c2.458-12.215,6.677-13.634,14.246-15.827
				C98.646,186.069,104.801,190.026,103.654,197.475z"/>
			<path id="XMLID_549_" style="fill:#B16668;" d="M173.974,195.779c-1.866,3.132-7.216,12.406-12.745,19.787
				c-1.135,1.515-4.313,5.699-5.976,6.112c-2.114,0.525-3.911-1.145-5.032-1.922c-3.834-2.659-23.645-22.352-23.645-22.352
				c-6.167-8.599-4.61-14.079-3.772-14.083c0.838-0.003,7.159-1.664,12.572,3.627c4.094,4.001,18.097,18.475,18.097,18.475
				c3.309-3.885,5.477-5.806,8.774-9.702c1.601-1.892,4.046-3.934,4.162-6.539c0.053-1.191-0.186-2.372-0.323-3.556
				c-0.321-2.772,0.107-5.402,0.519-8.133c0.018-0.121,0.037-0.244,0.094-0.352c0.08-0.153,0.228-0.262,0.388-0.326
				c0.585-0.233,1.275,0.12,1.622,0.645c0.348,0.526,0.433,1.177,0.493,1.805c0.06,0.627,0.109,1.276,0.401,1.834
				c0.059,0.113,0.131,0.225,0.236,0.297c0.111,0.077,0.249,0.104,0.384,0.108c0.753,0.024,1.154-0.817,1.432-1.411
				c0.65-1.393,1.177-2.844,1.572-4.329c0.271-1.021,0.739-2.005,1.089-3.014c0.202-0.584,0.43-1.204,0.928-1.57
				c0.818-0.601,1.975-0.264,2.88,0.193c0.501,0.253,0.988,0.538,1.424,0.89c1.406,1.134,2.023,2.81,2.425,4.507
				c0.47,1.988,0.123,4.085-0.395,6.027c-0.764,2.868-2.077,5.166-3.792,7.557C176.498,192.149,175.103,193.874,173.974,195.779z"/>
			<g id="XMLID_2908_">
				<path id="XMLID_548_" style="fill:#FAFAFA;" d="M130.336,209.577l-0.392,8.282l1.216,5.087c0,0-12.885,7.439-19.745,11.4
					c-6.836,3.952-19.959,11.524-19.959,11.524l6.72-21.3l-2.42-16.839c0,0,0.008-0.008,0.016-0.008
					c0.259-0.22,3.222-3.2,4.174-10.248c0.909-6.725-0.773-10.738-1.3-11.406c0.279-0.088,6.273-1.708,6.273-1.708l12.792-0.958
					l5.304-0.087c0,0,6.913,4.64,10.27,12.976C136.414,204.065,130.336,209.577,130.336,209.577z"/>
				<path id="XMLID_547_" style="opacity:0.1;" d="M102.39,234.131c0.854-3.796,5.533-5.845,3.677-7.371
					c-1.856-1.526-6.579-11.127-7.115-15.54c-0.536-4.412,0.005-10.284,0.005-10.284s0.001,0.007,0,0
					c-1.164,5.734-3.633,8.229-3.869,8.429c-0.008,0-0.016,0.008-0.016,0.008l2.42,16.839l-6.72,21.3l17.378-10.033
					C104.195,237.552,101.901,236.302,102.39,234.131z"/>
				<g id="XMLID_2915_">
					<path id="XMLID_546_" style="opacity:0.9;fill:#27DEBF;" d="M127.086,150.271c-0.381,3.712-4.522,7.621-10.704,11.074
						c-6.175,3.454-10.842,3.317-10.842,3.317c15.653-8.099,19.472-17.866,19.472-17.866
						C127.088,147.711,127.086,150.271,127.086,150.271z"/>
					<g id="XMLID_2920_">
						<g id="XMLID_2944_">
							<path id="XMLID_2945_" style="fill:#B16668;" d="M127.086,150.271c1.288,1.286,3.047,4.671,2.868,15.971
								c-0.152,9.577-3.239,11.965-4.793,12.658c-1.554,0.693-4.562,0.3-7.488-0.166l0.034,4.671c0,0,3.956,4.492,3.721,7.129
								c-0.235,2.637-4.289,4.574-11.815-1.033c-3.667-2.732-4.693-5.138-4.693-5.138l-0.022-12.587c0,0-1.708,1.683-4.642-0.846
								c-2.423-2.087-3.259-5.631-1.397-7.549c1.862-1.918,5.333-1.424,6.683,1.281c0,0,4.661,0.137,10.843-3.317
								C122.566,157.892,126.7,153.986,127.086,150.271z"/>
						</g>
						<g id="XMLID_2942_">
							<path id="XMLID_2943_" style="fill:#263238;" d="M118.889,163.531c0.04,0.689-0.466,1.278-1.13,1.315
								c-0.664,0.036-1.235-0.493-1.274-1.183c-0.04-0.69,0.466-1.278,1.131-1.314C118.28,162.311,118.85,162.841,118.889,163.531z"
								/>
						</g>
						<g id="XMLID_2940_">
							<path id="XMLID_2941_" style="fill:#9A4A4D;" d="M119.054,171.764l3.201,0.996c-0.259,0.916-1.185,1.435-2.069,1.161
								C119.302,173.646,118.795,172.68,119.054,171.764z"/>
						</g>
						<g id="XMLID_2938_">
							<path id="XMLID_2939_" style="fill:#263238;" d="M129.091,160.144l-2.448-1.671c0.439-0.699,1.344-0.891,2.02-0.43
								C129.339,158.505,129.531,159.445,129.091,160.144z"/>
						</g>
						<g id="XMLID_2936_">
							<path id="XMLID_2937_" style="fill:#263238;" d="M128.55,162.975c0.04,0.69-0.466,1.278-1.13,1.315
								c-0.664,0.036-1.234-0.494-1.274-1.183c-0.04-0.69,0.466-1.278,1.13-1.315C127.94,161.756,128.511,162.285,128.55,162.975z"
								/>
						</g>
						<g id="XMLID_2934_">
							<polygon id="XMLID_2935_" style="fill:#9A4A4D;" points="123.124,161.727 123.109,169.574 126.915,168.365 							"/>
						</g>
						<g id="XMLID_2923_">
							<path id="XMLID_2930_" style="fill:#9A4A4D;" d="M117.673,178.734c-3.082-0.382-9.431-2.156-10.436-4.653
								c0,0,0.34,1.572,2.244,3.18c1.905,1.608,8.206,3.39,8.206,3.39L117.673,178.734z"/>
						</g>
					</g>
				</g>
			</g>
			<path id="XMLID_545_" style="fill:#263238;" d="M105.56,168.602c1.332-0.006,2.407-1.09,2.401-2.421
				c-0.006-1.332-1.09-2.407-2.422-2.401L105.56,168.602z"/>
		</g>
	</g>
	<g id="Character_Bubble_1_">
		<g id="Speach_Bubble_4_">
			<g id="XMLID_1141_">
				<g id="XMLID_1142_">
					<g id="XMLID_1150_">
						<path id="XMLID_1151_" style="fill:#27DEBF;" d="M188.258,328.619l-3.449-1.972c-0.094-0.043-0.171-0.103-0.222-0.197
							l-2.164-5.224l2.815-1.626l-0.086,0.248L188.258,328.619z"/>
					</g>
					<g id="XMLID_1148_" style="opacity:0.4;">
						<path id="XMLID_1149_" d="M188.258,328.619l-3.449-1.972c-0.094-0.043-0.171-0.103-0.222-0.197l-2.164-5.224l2.815-1.626
							l-0.086,0.248L188.258,328.619z"/>
					</g>
					<path id="XMLID_1147_" style="fill:#27DEBF;" d="M184.809,319.833l3.281,8.617c0.21,0.363,0.749,0.312,0.887-0.084
						l3.467-12.944L184.809,319.833z"/>
					<path id="XMLID_1146_" style="opacity:0.2;" d="M184.809,319.833l3.281,8.617c0.21,0.363,0.749,0.312,0.887-0.084l3.467-12.944
						L184.809,319.833z"/>
					<path id="XMLID_1145_" style="fill:#27DEBF;" d="M237.594,199.671c0-1.462-1.026-3.24-2.292-3.971l-1.867-1.078
						c-1.266-0.731-3.319-0.731-4.585,0l-57.944,33.458c-1.266,0.731-2.293,2.509-2.293,3.971V319.1c0,1.462,1.027,3.24,2.293,3.971
						l1.867,1.078c1.266,0.731,3.319,0.731,4.585,0l57.798-33.406c1.497-0.864,2.445-2.773,2.445-4.235L237.594,199.671z"/>
					<path style="opacity:0.6;fill:#FFFFFF;" d="M183.843,312.341l44.954-25.954c1.023-0.591,1.853-2.027,1.853-3.209l0.001-71.975
						c0-1.181-0.829-1.66-1.853-1.07l-44.955,25.955c-1.023,0.591-1.853,2.027-1.853,3.209l0,71.974
						C181.99,312.453,182.82,312.932,183.843,312.341z"/>
					<path id="XMLID_1144_" style="opacity:0.1;" d="M168.613,319.1c0,1.462,1.027,3.24,2.293,3.971l1.867,1.078
						c1.145,0.661,2.925,0.726,4.193,0.192c-1.079,0.408-1.901-0.208-1.901-1.516l0-87.049c0-0.731,0.257-1.541,0.671-2.26
						l-6.452-3.725c-0.415,0.718-0.671,1.528-0.671,2.259V319.1z"/>
					<path id="XMLID_1143_" style="opacity:0.6;fill:#FFFFFF;" d="M237.585,199.539c-0.021-1.111-1.053-1.922-2.43-1.103
						l-57.799,33.372c-0.631,0.364-1.208,0.984-1.615,1.711l-6.449-3.722c0.417-0.727,0.984-1.348,1.615-1.711l57.938-33.462
						c1.273-0.727,3.326-0.727,4.589,0l1.872,1.08C236.385,196.325,237.555,198.018,237.585,199.539z"/>
				</g>
			</g>
		</g>
		<g id="XMLID_2886_">
			<g id="XMLID_2907_">
				<path style="fill:#37474F;" d="M230.649,283.179l0-23.793c-2.448-7.533-7.624-13.514-15.666-12.758l7.429,18.661l5.625,21.537
					l0.76-0.439C229.82,285.797,230.649,284.36,230.649,283.179z"/>
			</g>
			<g id="XMLID_3296_">
				<g id="XMLID_4148_">
					<path id="XMLID_4149_" style="fill:#455A64;" d="M192.2,250.206c-1.893,0.846-2.961,3.571-3.721,5.5
						c-0.676,1.719-1.986,6.063-1.986,9.349l0.886,26.086l-0.318,19.341l40.975-23.657c0,0-0.555-18.637-0.555-25.342
						c0-0.303-0.008-0.61-0.023-0.921c-0.351-7.021-5.512-12.427-11.901-13.872c-2.327-0.526-16.234,1.267-16.234,1.267
						L192.2,250.206L192.2,250.206z"/>
				</g>
				<g>
					<path style="fill:#37474F;" d="M215.806,274.648c-0.039-0.745-0.158-1.485-0.304-2.215c-0.163-0.815-0.361-1.623-0.362-2.459
						c-0.001-0.847,0.136-1.682,0.266-2.517c0.442-2.822,0.583-6-1.516-8.236c-0.221-0.236-0.936-0.229-0.689,0.234
						c0.691,1.296,1.253,2.618,1.359,4.099c0.105,1.472-0.121,2.909-0.338,4.36c-0.117,0.784-0.223,1.579-0.179,2.373
						c0.041,0.735,0.222,1.457,0.376,2.175c0.146,0.681,0.306,1.36,0.387,2.053c0.039,0.337,0.07,0.684,0.083,1.023
						c0.016,0.402-0.097,0.819,0.011,1.208c0.071,0.259,0.453,0.477,0.622,0.184C215.874,276.318,215.842,275.34,215.806,274.648z"
						/>
					<path style="fill:#37474F;" d="M213.085,261.559c-0.079-0.703-0.361-1.909-1.206-2.081c-0.136-0.028-0.202,0.118-0.165,0.233
						c0.123,0.383,0.335,0.693,0.412,1.104c0.077,0.416,0.108,0.829,0.104,1.253c-0.008,0.868-0.118,1.757-0.332,2.599
						c-0.3,1.177-0.948,2.237-1.301,3.399c-0.388,1.278-0.604,2.932-0.067,4.188c0.057,0.134,0.259,0.225,0.34,0.066
						c0.396-0.774,0.313-1.752,0.421-2.598c0.096-0.749,0.257-1.462,0.533-2.166c0.412-1.049,0.934-2.054,1.143-3.17
						C213.139,263.463,213.191,262.494,213.085,261.559z"/>
				</g>
				<g id="XMLID_3342_">
					<g id="XMLID_3621_">
						<path id="XMLID_4140_" style="fill:#263238;" d="M202.9,218.67c0,6.534,5.297,11.83,11.83,11.83
							c6.534,0,11.83-5.297,11.83-11.83c0-6.534-5.297-11.831-11.83-11.831C208.197,206.84,202.9,212.136,202.9,218.67z"/>
						<path id="XMLID_4139_" style="fill:#263238;" d="M194.281,227.082c0,0,1.917,9.007,2.686,10.487s2.357,1.9,2.357,1.9
							l-0.134-6.336L194.281,227.082z"/>
						<path id="XMLID_4112_" style="fill:#263238;" d="M196.752,214.159c-0.178-0.564-0.545-1.092-1.085-1.328
							c-0.354-0.154-0.752-0.173-1.137-0.152c-1.075,0.06-2.146,0.427-2.966,1.124c-0.82,0.697-1.366,1.737-1.372,2.813
							c-0.009,1.458,0.934,2.765,2.048,3.706c-1.069,0.415-1.532,1.778-1.241,2.888c0.224,0.856,0.786,1.541,1.425,2.127
							c0.594,0.545,1.029,1.138,1.742,1.562c0.441,0.262,0.871,0.269,1.383,0.327c0.173,0.02,2.337,0.193,2.344,0.269
							c-0.15-1.662-0.301-3.323-0.451-4.985c-0.123-1.361-0.246-2.721-0.369-4.082c-0.054-0.603-0.131-1.208-0.164-1.813
							c-0.044-0.806,0.096-1.598-0.138-2.4C196.764,214.198,196.758,214.178,196.752,214.159z"/>
						<path id="XMLID_4111_" style="fill:#FFA8A7;" d="M198.975,227.499c-0.724,0.432-1.757-0.958-2.65-1.893
							c-0.893-0.934-3.808-2.211-5.262,0.853c-1.482,3.123,1.284,7.248,3.578,7.969c3.955,1.242,4.549-1.295,4.549-1.295
							l0.291,15.998l0,0c4.918,6.305,18.565,5.824,12.879-0.762l-0.011-5.689c0,0,3.584,0.544,5.332,0.274
							c2.909-0.45,4.739-2.745,5.621-5.893c1.417-5.057,1.955-9.14,0.753-19.086c-1.318-10.901-13.997-11.014-20.843-6.705
							C196.364,215.58,198.975,227.499,198.975,227.499z"/>
						<g>
							<path style="fill:#37474F;" d="M212.031,258.218c0,0-7.256-3.565-12.592-11.373l-0.038-2.112c0,0-5.847,1.15-7.858,3.073
								c-2.011,1.923-2.006,2.671-2.006,2.671l2.881-0.271c0,0,1.991-0.498,5.473,2.658
								C202.356,256.909,209.43,260.222,212.031,258.218z"/>
							<path style="fill:#37474F;" d="M212.349,245.262l0.011,3.107c0,0,0.723,1.449,0.84,3.702
								c0.117,2.253-1.168,6.146-1.168,6.146s1.162-0.029,2.699-1.74c2.59-2.883,1.917-7.71,1.689-9.213
								c-0.227-1.502-1.885-2.754-4.072-3.304V245.262z"/>
						</g>
						<path id="XMLID_3626_" style="fill:#263238;" d="M195.251,218.166c-0.205-1.054,0.388-2.081,0.255-3.147
							c-0.119-0.953-0.807-1.553-1.103-2.434c-0.426-1.272-0.2-2.737,0.566-3.838c0.766-1.101,2.046-1.82,3.383-1.932
							c0.691-0.058,1.436,0.057,1.956,0.516c-0.065-0.855,0.248-1.717,0.78-2.389c0.666-0.841,1.709-1.502,2.778-1.648
							c0.578-0.079,1.171-0.045,1.739,0.087c0.16,0.037,1.499,0.421,1.47,0.605c0.232-1.483,1.508-2.714,2.983-2.991
							s3.06,0.363,4.012,1.523c1.157-0.95,2.856-1.074,4.25-0.531c0.697,0.271,1.327,0.695,1.834,1.245
							c0.249,0.27,0.467,0.568,0.654,0.884c0.179,0.303,0.2,0.686,0.374,0.959c1.1-0.36,2.275-0.479,3.416-0.205
							c2.055,0.492,3.393,2.278,3.642,4.342c0.137,1.131-0.126,2.324-0.812,3.234c-0.922,1.223-2.441,1.643-3.907,1.43
							c-0.327,1.552-1.564,2.877-3.091,3.309c-1.526,0.432-3.274-0.049-4.366-1.2c-0.354,0.581-0.719,1.11-1.311,1.472
							c-1.017,0.622-2.275,0.805-3.436,0.565c-1.164-0.24-2.195-0.675-3.041-1.546c0.023,1.38-1.207,2.526-2.54,2.883
							c-1.333,0.357-2.745,0.111-4.103-0.136c0.581,0.839,0.982,1.863,0.827,2.872c-0.155,1.009-0.996,1.95-2.017,1.967
							c0.268,1.067,0.264,2.2-0.01,3.265c-0.11,0.428-0.28,0.869-0.632,1.136c-1.255,0.951-2.735-2.181-3.477-2.856
							c-0.464-0.423-0.436-1.406-0.461-1.969c-0.026-0.58-0.024-1.163,0.004-1.743c0.017-0.357,0.227-0.792,0.174-1.12
							C195.895,219.862,195.422,219.047,195.251,218.166z"/>
						<path id="XMLID_3625_" style="fill:#263238;" d="M194.378,213.625l-4.378-2.35c0.621-1.255,2.105-1.745,3.314-1.096
							C194.523,210.828,194.999,212.371,194.378,213.625z"/>
						<path id="XMLID_3622_" style="fill:#F28F8F;" d="M212.349,242.68c0,0-6.493-1.308-8.763-2.515
							c-1.519-0.808-2.771-2.207-3.138-3.105c0,0,0.425,1.926,1.783,3.662c1.66,2.122,10.118,3.685,10.118,3.685L212.349,242.68z"/>
					</g>
					<g id="XMLID_3343_">
						<path id="XMLID_3581_" style="fill:#263238;" d="M212.031,225.876c0,0.747-0.583,1.35-1.301,1.348
							c-0.719-0.002-1.301-0.609-1.301-1.356c0-0.747,0.582-1.35,1.301-1.348C211.449,224.523,212.031,225.13,212.031,225.876z"/>
						<path id="XMLID_3576_" style="fill:#263238;" d="M210.651,220.964l-2.783,1.536c-0.41-0.8-0.12-1.792,0.649-2.216
							C209.285,219.86,210.241,220.164,210.651,220.964z"/>
						<path id="XMLID_3557_" style="fill:#F28F8F;" d="M211.761,234.864l2.97,1.114c-0.294,0.851-1.197,1.292-2.018,0.985
							C211.893,236.655,211.467,235.715,211.761,234.864z"/>
						<path id="XMLID_3546_" style="fill:#263238;" d="M223.257,222.047l-2.538-1.955c0.518-0.727,1.505-0.878,2.206-0.338
							C223.626,220.293,223.774,221.32,223.257,222.047z"/>
						<path id="XMLID_3532_" style="fill:#263238;" d="M222.475,225.506c0,0.747-0.583,1.35-1.301,1.348
							c-0.719-0.002-1.301-0.609-1.301-1.355c0-0.747,0.583-1.35,1.301-1.348C221.893,224.152,222.475,224.759,222.475,225.506z"/>
						<polygon id="XMLID_3419_" style="fill:#F28F8F;" points="215.846,224.272 216.274,232.096 220.359,230.704 						"/>
					</g>
				</g>
			</g>
			<g id="XMLID_561_">
				<g id="XMLID_2695_">
					<path id="XMLID_571_" style="fill:#455A64;" d="M241.341,285.998l0.02,0.002l-1-0.862l-0.001,0.013
						c-0.226-0.181-0.576-0.238-1.028-0.115l-10.833,2.947c-1.004,0.273-2.094,1.291-2.434,2.275l-7.796,22.492
						c-0.18,0.521-0.109,0.923,0.144,1.149l-0.009,0.003l1.032,0.889l-0.001-0.013c0.225,0.188,0.579,0.247,1.038,0.122
						l10.833-2.946c1.004-0.273,2.094-1.292,2.434-2.275c1.531-4.421,6.265-18.072,7.796-22.493
						C241.728,286.631,241.634,286.214,241.341,285.998z"/>
					<path id="XMLID_2696_" style="fill:#37474F;" d="M219.272,313.613l7.796-22.492c0.34-0.983,1.43-2.001,2.434-2.275
						l10.833-2.946c1.004-0.273,1.542,0.302,1.201,1.286c-1.531,4.42-6.265,18.072-7.796,22.492
						c-0.34,0.983-1.431,2.002-2.434,2.275l-10.833,2.946C219.469,315.172,218.932,314.596,219.272,313.613z"/>
					<path id="XMLID_570_" style="fill:#263238;" d="M228.323,289.471c-0.564,0.445-1.049,1.059-1.257,1.653l-7.798,22.485
						c-0.169,0.505-0.119,0.901,0.109,1.128l-0.97-0.831l0.01-0.01c-0.257-0.228-0.327-0.624-0.148-1.148l7.798-22.495
						c0.188-0.554,0.633-1.118,1.158-1.564L228.323,289.471z"/>
				</g>
				<g>
					<path id="XMLID_562_" style="fill:#FFA8A7;" d="M173.609,308.2l10.088-11.572c0,0,27.569,4.355,30.655,4.404
						c3.086,0.049,5.344-2.871,7.343-5.422c0.951-1.214,3.032-1.49,3.032-1.49s-1.078,3.11-1.078,3.111
						c-0.123,0.355,1.307,0.837,1.485,0.896c0.939,0.311,1.885,0.465,2.87,0.487c2.174,0.047,4.358-0.358,6.369-1.186
						c1.123-0.462,2.216-1.061,3.42-1.22c0.206-0.027,0.429-0.038,0.607,0.069c0.3,0.181,0.336,0.596,0.324,0.946
						c-0.117,3.671-1.632,7.28-4.17,9.934c-0.557,0.583-1.162,1.121-1.824,1.581c-3.664,2.549-8.206,2.522-12.47,2.237
						c-1.613-0.108-3.215-0.169-4.831-0.183C205.262,310.705,178.299,309.356,173.609,308.2z"/>
					<path style="fill:#455A64;" d="M207.09,300.16l7.261,0.871c-1.418,1.722-2.467,7.381-1.202,9.725h-8.94
						C203.285,306.659,203.648,302.948,207.09,300.16z"/>
					<path style="fill:#37474F;" d="M185.262,294.635c-2.191-0.378,6.8,1.474,12.243,2.528c4.852,0.94,9.143,1.504,9.585,2.998
						c0,0-2.88,6.233-2.015,10.345c0,0-0.558,0.777-5.231,0.998c-4.673,0.221-24.325-1.102-26.949-2.603
						c-2.624-1.501-3.566-3.396-2.89-7.6L185.262,294.635z"/>
					<g id="XMLID_566_">
						<path id="XMLID_567_" style="fill:#37474F;" d="M170.006,301.3c0.057-0.794,2.282-21.297,5.033-35.658
							c1.855-9.685,6.939-13.994,14.499-15.165l2.674-0.414c4.709,2.954,1.081,17.772-3.641,25.835l-2.799,21.265l-12.425,10.493
							C169.635,306.919,169.926,302.421,170.006,301.3z"/>
					</g>
				</g>
			</g>
		</g>
	</g>
	<g id="Character_Bubble">
		<g id="Speach_Bubble">
			<g id="XMLID_568_">
				<g id="XMLID_569_">
					<g id="XMLID_1081_">
						<path id="XMLID_1082_" style="fill:#27DEBF;" d="M272.299,216.669l-3.449-1.972c-0.094-0.043-0.171-0.103-0.223-0.197
							l-2.164-5.224l2.815-1.626l-0.085,0.248L272.299,216.669z"/>
					</g>
					<g id="XMLID_1072_" style="opacity:0.4;">
						<path id="XMLID_1080_" style="fill:#FFFFFF;" d="M272.299,216.669l-3.449-1.972c-0.094-0.043-0.171-0.103-0.223-0.197
							l-2.164-5.224l2.815-1.626l-0.085,0.248L272.299,216.669z"/>
					</g>
					<path id="XMLID_1070_" style="fill:#27DEBF;" d="M268.849,207.882l3.281,8.617c0.21,0.363,0.749,0.312,0.887-0.085
						l3.467-12.944L268.849,207.882z"/>
					<path id="XMLID_588_" style="opacity:0.6;fill:#FFFFFF;" d="M268.849,207.882l3.281,8.617c0.21,0.363,0.749,0.312,0.887-0.085
						l3.467-12.944L268.849,207.882z"/>
					<path id="XMLID_587_" style="fill:#27DEBF;" d="M321.634,87.721c0-1.462-1.026-3.24-2.292-3.971l-1.867-1.078
						c-1.266-0.731-3.319-0.731-4.585,0l-57.944,33.458c-1.266,0.731-2.293,2.509-2.293,3.971v87.049
						c0,1.462,1.027,3.24,2.293,3.971l1.867,1.078c1.266,0.731,3.319,0.731,4.585,0l57.798-33.406
						c1.497-0.864,2.445-2.773,2.445-4.235L321.634,87.721z"/>
					<path style="opacity:0.6;fill:#FFFFFF;" d="M261.526,212.104l57.671-33.296c1.35-0.78,2.445-2.676,2.445-4.235l0-86.659
						c0-1.56-1.095-2.192-2.446-1.413l-57.67,33.267c-1.351,0.779-2.446,2.675-2.446,4.234l0.001,86.69
						C259.08,212.251,260.175,212.883,261.526,212.104z"/>
					<path style="opacity:0.6;fill:#FFFFFF;" d="M267.883,200.391l44.954-25.954c1.023-0.591,1.853-2.027,1.853-3.209l0.001-71.975
						c0-1.181-0.829-1.66-1.853-1.069l-44.955,25.955c-1.023,0.591-1.853,2.027-1.853,3.209l0,71.974
						C266.031,200.503,266.86,200.981,267.883,200.391z"/>
					<path id="XMLID_586_" style="opacity:0.4;fill:#FFFFFF;" d="M252.653,207.15c0,1.462,1.027,3.24,2.293,3.971l1.867,1.078
						c1.144,0.661,2.925,0.726,4.193,0.192c-1.079,0.408-1.901-0.208-1.901-1.516l0-87.049c0-0.731,0.257-1.541,0.671-2.259
						l-6.452-3.725c-0.415,0.718-0.671,1.528-0.671,2.259V207.15z"/>
					<path id="XMLID_584_" style="opacity:0.8;fill:#FFFFFF;" d="M321.626,87.589c-0.021-1.111-1.053-1.922-2.43-1.103
						l-57.799,33.372c-0.631,0.364-1.208,0.984-1.615,1.711l-6.449-3.722c0.417-0.727,0.984-1.348,1.615-1.711l57.938-33.462
						c1.273-0.727,3.326-0.727,4.588,0l1.872,1.08C320.426,84.374,321.595,86.067,321.626,87.589z"/>
				</g>
			</g>
		</g>
		<g id="XMLID_1178_">
			
				<ellipse transform="matrix(0.2298 -0.9732 0.9732 0.2298 120.0006 370.3584)" style="fill:#263238;" cx="293.984" cy="109.366" rx="20.066" ry="20.066"/>
			<path style="fill:#27DEBF;" d="M287.479,113.92c0,0-3.268-1.349-3.233-3.378c0.035-2.03,2.109-1.735,2.109-1.735
				s1.888,2.534,3.129,3.268C290.724,112.808,288.482,114.436,287.479,113.92z"/>
			<path style="fill:#FFBDA7;" d="M276.811,138.907c-4.809,1.028-8.327,2.318-10.781,14.047l0,46.367
				c0,1.161,0.803,1.638,1.802,1.093l1.012-0.584l7.667-36.844c0.315-0.134,7.446-6.041,8.664-13.938
				C286.323,141.6,276.811,138.907,276.811,138.907z"/>
			<g id="XMLID_1180_">
				<g id="XMLID_1181_">
					<g id="XMLID_1182_">
						<path style="fill:#27DEBF;" d="M305.111,134.628c2.934-0.195,4.088,0.117,6.377,2.382c2.037,2.015,3.201,3.903,3.201,3.903
							l0,16.671l-9.119-0.617L305.111,134.628z"/>
						<path style="opacity:0.1;" d="M305.111,134.628c2.934-0.195,4.088,0.117,6.377,2.382c2.037,2.015,3.201,3.903,3.201,3.903
							l0,16.671l-9.119-0.617L305.111,134.628z"/>
						<path style="fill:#27DEBF;" d="M311.489,171.61l1.033-8.623c1.237-0.941,2.037-2.35,2.98-4.569
							c0.943-2.219,0.659-5.735-0.286-7.95c-1.106-2.593-1.709-3.856-2.213-4.811c-1.868-3.537-3.655-6.75-7.891-11.028
							l-5.879,0.349l-12.596,1.513l-9.825,2.416c7.084,10.009-0.3,24.08-0.3,24.08l3.664,12.04c0,0-4.242,9.171-6.66,15.9
							c0.798,1.297,2.478,2.481,4.743,3.474l33.931-19.59C311.906,173.652,311.664,172.564,311.489,171.61z"/>
						<path style="opacity:0.05;" d="M286.142,160.552c0.029,0.218,1.433,3.567,6.67,4.69c5.237,1.123,9.566-0.69,11.902-3.534
							c0,0-2.004,7.158-11.795,5.265C286.443,165.721,286.142,160.552,286.142,160.552z"/>
						<path style="opacity:0.05;" d="M284.167,179.566c2.628,0.411,5.314,0.451,7.953,0.118c0.655-0.083,1.408-0.26,1.687-0.859
							c0.423-0.91-0.582-1.802-1.432-2.337c-2.655-1.673-5.104-3.671-7.277-5.935c-1.315-1.371-2.554-2.881-3.183-4.673
							c-0.979-2.789-0.365-5.844-0.153-8.792c0.167-2.308,0.078-4.634-0.263-6.923c-0.319-2.144-0.955-4.387-2.27-6.048
							c2.422,9.063-2.717,18.87-2.717,18.87l3.664,12.04c0,0-0.502,1.084-1.258,2.781
							C280.491,178.791,282.331,179.279,284.167,179.566z"/>
						<path style="fill:#37474F;" d="M311.488,171.61c-0.475,0.639-3.455,4.388-12.2,5.424c-8.746,1.036-19.112-2.007-19.112-2.007
							s-5.075,8.724-7.156,16.437c-0.835,3.094-1.699,6.943-1.699,6.943l40.869-23.596L311.488,171.61z"/>
						<g>
							<path style="fill:#27DEBF;" d="M276.811,138.907c0,0-2.408-0.204-4.902,1.368c-2.494,1.572-3.949,3.504-5.879,10.672
								l0,23.326c0,0,2.531,2.657,8.259,1.844c-0.157-0.271,3.042-13.718,3.042-13.718s3.781-6.384,2.945-14.508
								C279.609,141.393,276.811,138.907,276.811,138.907z"/>
							<path style="opacity:0.1;" d="M276.811,138.907c0,0-2.408-0.204-4.902,1.368c-2.494,1.572-3.949,3.504-5.879,10.672l0,23.326
								c0,0,2.531,2.657,8.259,1.844c-0.157-0.271,3.042-13.718,3.042-13.718s3.781-6.384,2.945-14.508
								C279.609,141.393,276.811,138.907,276.811,138.907z"/>
						</g>
						<g id="XMLID_2692_">
							<path id="XMLID_2693_" style="fill:#FFBDA7;" d="M308.608,101.844c1.288,1.286,3.047,4.671,2.868,15.971
								c-0.152,9.577-3.239,11.965-4.793,12.658c-1.553,0.693-4.562,0.3-7.488-0.166l0.034,4.671c0,0,3.957,4.492,3.721,7.129
								c-0.235,2.637-4.289,4.575-11.815-1.033c-3.667-2.732-4.566-4.174-4.566-4.174l-0.148-13.549c0,0-1.708,1.683-4.642-0.846
								c-2.423-2.087-3.259-5.631-1.397-7.549c1.862-1.918,5.333-1.424,6.682,1.281c0,0,4.661,0.137,10.843-3.317
								C304.088,109.466,308.222,105.56,308.608,101.844z"/>
						</g>
						<path style="fill:#FFBDA7;" d="M286.636,136.491l-6.359,1.564c0,0,7.056,8.984,16.684,9.836
							c9.629,0.852,12.255-4.476,5.134-13.083l-2.866,0.171L286.636,136.491z"/>
						<path style="fill:#263238;" d="M273.918,109.366c0,4.798-0.748,14.82,7.322,20.066c7.29,4.739,10.847,0.726,10.847,0.726
							s-2.077,0.723-3.815-0.512c-1.818-1.292-1.851-3.467-1.851-6.295l0,0c-2.114,1.945-5.481,1.399-6.883-1.108
							c-0.057-0.102-0.114-0.207-0.171-0.314C277.059,117.555,273.918,109.366,273.918,109.366z"/>
						<g id="XMLID_2677_">
							<path id="XMLID_2679_" style="fill:#263238;" d="M300.411,115.105c0.04,0.69-0.466,1.278-1.13,1.315
								c-0.664,0.036-1.235-0.493-1.274-1.184c-0.04-0.69,0.466-1.278,1.131-1.314C299.802,113.885,300.372,114.415,300.411,115.105
								z"/>
						</g>
						<g id="XMLID_2672_">
							<path id="XMLID_2674_" style="fill:#F0997A;" d="M300.576,123.338l3.201,0.996c-0.259,0.916-1.185,1.435-2.068,1.16
								C300.824,125.219,300.317,124.254,300.576,123.338z"/>
						</g>
						<g id="XMLID_2646_">
							<path id="XMLID_2652_" style="fill:#263238;" d="M310.613,111.718l-2.449-1.671c0.44-0.699,1.344-0.891,2.02-0.43
								C310.861,110.078,311.053,111.019,310.613,111.718z"/>
						</g>
						<g id="XMLID_2644_">
							<path id="XMLID_2645_" style="fill:#263238;" d="M310.072,114.549c0.04,0.69-0.466,1.278-1.13,1.315
								c-0.664,0.036-1.234-0.493-1.274-1.183c-0.04-0.69,0.466-1.278,1.13-1.315C309.462,113.329,310.033,113.859,310.072,114.549z
								"/>
						</g>
						<g id="XMLID_2477_">
							<polygon id="XMLID_2643_" style="fill:#F0997A;" points="304.254,113.3 304.239,121.148 308.045,119.938 							"/>
						</g>
						<g id="XMLID_1183_">
							<path id="XMLID_1293_" style="fill:#F0997A;" d="M299.195,130.308c-3.082-0.382-9.431-2.156-10.436-4.653
								c0,0,0.34,1.572,2.244,3.18c1.905,1.608,8.206,3.39,8.206,3.39L299.195,130.308z"/>
						</g>
					</g>
				</g>
			</g>
			<path id="XMLID_1179_" style="fill:#263238;" d="M287.082,120.175c1.332-0.006,2.407-1.09,2.401-2.422
				c-0.006-1.332-1.09-2.407-2.421-2.401L287.082,120.175z"/>
		</g>
	</g>
</g>
<g id="Social_Icons">
	<g id="Twitter">
		<g id="XMLID_1176_">
			<g id="XMLID_1177_">
				<g id="XMLID_2694_">
					<path id="XMLID_2750_" style="fill:#263238;" d="M201.081,147.451l-3.76-7.07l3.025-8.732v-5.345l-9.258,5.345v5.345
						l3.98,6.894c0.067,0.117,0.164,0.193,0.271,0.24l-0.002,0.003L201.081,147.451z"/>
					<path id="XMLID_2749_" style="fill:#37474F;" d="M216.653,97.923c0-1.77-1.242-3.922-2.775-4.808l-2.26-1.305
						c-1.533-0.885-4.018-0.885-5.551,0l-24.088,13.909c-1.533,0.885-2.776,3.037-2.776,4.808v27.827
						c0,1.771,1.243,3.922,2.776,4.808l2.26,1.305c1.533,0.885,4.018,0.885,5.551,0l7.111-4.106l3.972,6.88
						c0.254,0.44,0.907,0.378,1.073-0.102l4.198-12.118l7.734-4.463c1.533-0.885,2.775-3.037,2.775-4.807L216.653,97.923z"/>
					<path id="XMLID_2698_" style="fill:#263238;" d="M179.203,138.355c0,1.77,1.243,3.922,2.776,4.807l2.26,1.305
						c1.386,0.8,3.542,0.87,5.077,0.224c-1.306,0.494-2.301-0.243-2.301-1.826l0-27.828c0-0.885,0.311-1.866,0.813-2.736
						l-7.811-4.51c-0.502,0.87-0.813,1.85-0.813,2.735V138.355z"/>
					<path id="XMLID_2697_" style="fill:#455A64;" d="M216.563,97.134c-0.324-1.178-1.398-1.554-2.68-0.816l-24.094,13.913
						c-0.764,0.44-1.463,1.191-1.955,2.072l-7.808-4.506c0.505-0.881,1.191-1.632,1.955-2.072l24.081-13.913
						c1.541-0.881,4.027-0.881,5.555,0l2.266,1.308C215.19,93.871,216.291,95.554,216.563,97.134z"/>
				</g>
			</g>
		</g>
		<g id="XMLID_2803_">
			<path id="XMLID_2804_" style="fill:#F5F5F5;" d="M206.438,122.505c1.499-3.457,2.251-7.147,2.147-10.177
				c0.689-1.06,1.286-2.232,1.759-3.449c-0.632,0.739-1.312,1.384-2.024,1.909c0.727-1.001,1.286-2.244,1.549-3.495
				c-0.681,0.932-1.436,1.759-2.238,2.433c-0.643-0.542-1.56-0.584-2.574,0.002c-2.275,1.314-3.947,5.11-3.434,7.753
				c-2.929,1.496-5.527,1.124-7.265-0.716c-0.924,2.646-0.479,5.153,1.091,5.645c-0.578,0.31-1.122,0.412-1.597,0.334
				c-0.038,2.2,1.132,3.56,2.827,3.036c-0.496,0.466-1.04,0.821-1.591,0.998c0.448,1.609,1.749,2.216,3.292,1.363
				c-1.482,2.404-3.349,4.174-5.219,4.959c1.56,0.433,3.413,0.141,5.403-1.008C202.051,130.081,204.729,126.444,206.438,122.505"/>
		</g>
	</g>
	<g id="Instagram">
		<g id="XMLID_1098_">
			<g id="XMLID_1099_">
				<g id="XMLID_1101_">
					<path id="XMLID_1153_" style="fill:#263238;" d="M283.089,289.914l-3.76-7.069l3.025-8.732v-5.345l-9.258,5.345v5.345
						l3.98,6.894c0.068,0.116,0.164,0.193,0.27,0.24l-0.002,0.004L283.089,289.914z"/>
					<path id="XMLID_1137_" style="fill:#37474F;" d="M298.662,240.387c0-1.77-1.242-3.922-2.775-4.808l-2.26-1.305
						c-1.533-0.885-4.018-0.885-5.551,0l-24.088,13.909c-1.533,0.885-2.776,3.037-2.776,4.808v27.827
						c0,1.77,1.243,3.922,2.776,4.808l2.26,1.305c1.533,0.885,4.018,0.885,5.551,0l7.111-4.106l3.972,6.88
						c0.254,0.44,0.907,0.378,1.073-0.102l4.198-12.118l7.734-4.463c1.533-0.885,2.775-3.037,2.775-4.807L298.662,240.387z"/>
					<path id="XMLID_1136_" style="fill:#263238;" d="M261.211,280.818c0,1.77,1.243,3.922,2.776,4.808l2.26,1.305
						c1.386,0.8,3.542,0.87,5.077,0.224c-1.306,0.494-2.301-0.243-2.301-1.826l0-27.827c0-0.885,0.311-1.866,0.813-2.736
						l-7.811-4.51c-0.502,0.87-0.813,1.85-0.813,2.736V280.818z"/>
					<path id="XMLID_1134_" style="fill:#455A64;" d="M298.571,239.598c-0.324-1.178-1.398-1.554-2.68-0.816l-24.094,13.913
						c-0.764,0.44-1.463,1.191-1.955,2.072l-7.808-4.506c0.505-0.881,1.191-1.632,1.955-2.072l24.081-13.913
						c1.541-0.88,4.027-0.88,5.555,0l2.266,1.308C297.198,236.335,298.299,238.018,298.571,239.598z"/>
				</g>
			</g>
		</g>
		<g id="XMLID_2753_">
			<path id="XMLID_2792_" style="fill:#FFFFFF;" d="M284.124,253.876c2.195-1.267,2.455-1.406,3.321-1.853
				c0.801-0.414,1.236-0.486,1.526-0.504c0.384-0.022,0.657,0.057,0.945,0.274c0.288,0.218,0.466,0.48,0.615,0.905
				c0.113,0.322,0.247,0.824,0.283,1.872c0.039,1.133,0.048,1.474,0.048,4.4c0,2.926-0.008,3.277-0.048,4.456
				c-0.037,1.09-0.171,1.747-0.283,2.198c-0.149,0.598-0.327,1.065-0.615,1.615c-0.288,0.549-0.561,0.945-0.945,1.366
				c-0.29,0.317-0.725,0.747-1.526,1.259c-0.867,0.553-1.127,0.714-3.321,1.981c-2.194,1.267-2.454,1.406-3.321,1.854
				c-0.801,0.414-1.237,0.487-1.526,0.504c-0.384,0.023-0.658-0.057-0.945-0.275c-0.288-0.217-0.466-0.479-0.615-0.905
				c-0.112-0.321-0.246-0.824-0.283-1.871c-0.039-1.133-0.048-1.475-0.048-4.401c0-2.926,0.009-3.277,0.048-4.456
				c0.037-1.09,0.171-1.747,0.283-2.199c0.149-0.597,0.327-1.065,0.615-1.615c0.287-0.549,0.561-0.945,0.945-1.365
				c0.289-0.317,0.725-0.747,1.526-1.258C281.67,255.304,281.93,255.143,284.124,253.876 M284.124,251.902
				c-2.232,1.288-2.512,1.463-3.388,2.022c-0.875,0.559-1.472,1.089-1.995,1.661c-0.54,0.592-0.999,1.231-1.456,2.105
				c-0.457,0.873-0.738,1.646-0.948,2.488c-0.203,0.814-0.342,1.691-0.382,2.88c-0.04,1.192-0.05,1.571-0.05,4.547
				c0,2.976,0.009,3.344,0.05,4.489c0.039,1.144,0.179,1.86,0.382,2.44c0.21,0.599,0.491,1.049,0.948,1.394
				c0.457,0.345,0.915,0.456,1.456,0.423c0.523-0.031,1.12-0.191,1.995-0.642c0.876-0.453,1.156-0.602,3.388-1.89
				c2.232-1.289,2.512-1.463,3.389-2.022c0.875-0.559,1.472-1.089,1.995-1.662c0.54-0.592,0.999-1.231,1.456-2.104
				c0.457-0.873,0.738-1.647,0.948-2.488c0.203-0.815,0.342-1.691,0.382-2.881c0.04-1.192,0.049-1.57,0.049-4.547
				c0-2.976-0.009-3.344-0.049-4.49c-0.04-1.143-0.179-1.859-0.382-2.439c-0.21-0.599-0.491-1.048-0.948-1.394
				c-0.457-0.346-0.915-0.456-1.456-0.424c-0.523,0.031-1.12,0.191-1.995,0.643C286.636,250.464,286.356,250.613,284.124,251.902"/>
			<path id="XMLID_2789_" style="fill:#FFFFFF;" d="M284.124,257.233c-2.331,1.346-4.22,4.956-4.22,8.064
				c0,3.108,1.889,4.536,4.22,3.191c2.331-1.346,4.221-4.956,4.221-8.064C288.345,257.315,286.455,255.887,284.124,257.233
				 M284.124,266.513c-1.513,0.873-2.74-0.054-2.74-2.071c0-2.017,1.227-4.361,2.74-5.235c1.513-0.874,2.74,0.054,2.74,2.071
				C286.863,263.295,285.637,265.639,284.124,266.513"/>
			<path id="XMLID_2754_" style="fill:#FFFFFF;" d="M289.498,253.908c0,0.726-0.442,1.57-0.986,1.885
				c-0.545,0.315-0.986-0.02-0.986-0.745c0-0.726,0.442-1.57,0.986-1.885C289.056,252.848,289.498,253.182,289.498,253.908"/>
		</g>
	</g>
	<g id="Facebook">
		<g id="XMLID_1169_">
			<g id="XMLID_1170_">
				<g id="XMLID_1171_">
					<path id="XMLID_1175_" style="fill:#263238;" d="M130.924,302.608l-3.76-7.069l3.025-8.732v-5.345l-9.258,5.345v5.345
						l3.98,6.894c0.067,0.116,0.164,0.193,0.271,0.24l-0.002,0.004L130.924,302.608z"/>
					<path id="XMLID_1174_" style="fill:#37474F;" d="M146.497,253.08c0-1.77-1.242-3.922-2.775-4.808l-2.26-1.305
						c-1.533-0.885-4.018-0.885-5.551,0l-24.088,13.909c-1.533,0.885-2.776,3.037-2.776,4.808v27.827
						c0,1.77,1.243,3.922,2.776,4.808l2.26,1.305c1.533,0.885,4.018,0.885,5.551,0l7.111-4.106l3.972,6.88
						c0.254,0.44,0.907,0.378,1.073-0.102l4.198-12.118l7.734-4.463c1.533-0.885,2.775-3.037,2.775-4.807L146.497,253.08z"/>
					<path id="XMLID_1173_" style="fill:#263238;" d="M109.046,293.512c0,1.77,1.243,3.922,2.776,4.808l2.26,1.305
						c1.385,0.8,3.542,0.87,5.077,0.224c-1.306,0.494-2.301-0.243-2.301-1.826l0-27.827c0-0.885,0.311-1.866,0.813-2.736
						l-7.811-4.51c-0.502,0.87-0.813,1.85-0.813,2.736V293.512z"/>
					<path id="XMLID_1172_" style="fill:#455A64;" d="M146.406,252.292c-0.324-1.178-1.398-1.554-2.68-0.816l-24.094,13.913
						c-0.764,0.44-1.463,1.191-1.955,2.072l-7.808-4.506c0.505-0.88,1.191-1.632,1.955-2.072l24.081-13.913
						c1.541-0.88,4.027-0.88,5.555,0l2.266,1.308C145.034,249.029,146.134,250.712,146.406,252.292z"/>
				</g>
			</g>
		</g>
		<path id="XMLID_1097_" style="fill:#FFFFFF;" d="M129.567,289.21l3.577-2.065v-11.945l2.496-1.441l0.266-4.153l-2.762,1.595
			c0,0,0-1.493,0-2.278c0-0.943,0.142-1.397,0.826-1.792c0.55-0.318,1.936-1.118,1.936-1.118v-4.151c0,0-2.041,1.178-2.477,1.43
			c-2.662,1.537-3.862,3.793-3.862,6.785c0,2.607,0,3.188,0,3.188l-1.861,1.075v4.049l1.861-1.074V289.21z"/>
	</g>
</g>
<g id="Speach_Bubble_1_">
	<g id="Speach_Bubble_6_">
		<g>
			<g id="XMLID_2843_">
				<g id="XMLID_2844_">
					<g id="XMLID_2856_">
						<path id="XMLID_2860_" style="fill:#263238;" d="M399.784,143.749l-3.76-7.07l3.025-8.732v-5.345l-9.258,5.345v5.345
							l3.98,6.894c0.068,0.117,0.164,0.193,0.27,0.24l-0.002,0.004L399.784,143.749z"/>
						<path id="XMLID_2859_" style="fill:#37474F;" d="M430.063,95.632c0-1.788-1.24-3.962-2.771-4.856l-2.256-1.318
							c-1.53-0.894-4.011-0.894-5.541,0l-38.818,22.603c-1.53,0.894-2.771,3.068-2.771,4.856v17.617
							c0,1.788,1.241,3.962,2.771,4.856l2.256,1.318c1.53,0.894,4.011,0.894,5.542,0l7.099-4.147l3.965,6.949
							c0.253,0.444,0.906,0.381,1.071-0.103l4.191-12.239l22.492-13.063c1.53-0.894,2.771-3.067,2.771-4.855L430.063,95.632z"/>
						<path id="XMLID_2858_" style="fill:#263238;" d="M377.906,134.105c0,1.77,1.243,3.922,2.776,4.807l2.26,1.305
							c1.386,0.8,3.542,0.87,5.077,0.224c-1.306,0.494-2.301-0.243-2.301-1.826l0-17.467c0-0.885,0.311-1.866,0.813-2.736
							l-7.811-4.509c-0.502,0.87-0.813,1.85-0.813,2.735V134.105z"/>
						<path id="XMLID_2857_" style="fill:#455A64;" d="M429.966,94.577c-0.323-1.19-1.396-1.569-2.676-0.824l-38.824,22.608
							c-0.763,0.445-1.461,1.203-1.952,2.092l-7.794-4.551c0.504-0.889,1.189-1.648,1.952-2.093l38.811-22.608
							c1.538-0.889,4.02-0.889,5.546,0l2.262,1.321C428.596,91.281,429.694,92.981,429.966,94.577z"/>
					</g>
				</g>
			</g>
		</g>
		<g>
			<path style="fill:#FAFAFA;" d="M398.021,115.463c0.1-0.057,0.185-0.051,0.258,0.019c0.071,0.07,0.107,0.18,0.107,0.333v13.442
				c0,0.152-0.036,0.305-0.107,0.458c-0.073,0.152-0.158,0.257-0.258,0.314l-1.094,0.632c-0.1,0.058-0.185,0.051-0.258-0.018
				c-0.071-0.07-0.108-0.181-0.108-0.333v-5.494l-4.081,2.356v5.494c0,0.152-0.036,0.305-0.108,0.458
				c-0.071,0.152-0.157,0.257-0.257,0.314l-1.095,0.632c-0.099,0.057-0.185,0.055-0.257-0.008c-0.072-0.062-0.107-0.177-0.107-0.343
				v-13.442c0-0.153,0.035-0.305,0.107-0.458c0.072-0.153,0.158-0.258,0.257-0.315l1.095-0.632c0.1-0.058,0.186-0.051,0.257,0.019
				c0.072,0.07,0.108,0.18,0.108,0.333v5.348l4.081-2.357v-5.348c0-0.153,0.037-0.305,0.108-0.458
				c0.072-0.153,0.157-0.258,0.258-0.315L398.021,115.463z"/>
			<path style="fill:#FAFAFA;" d="M400.021,123.464c0-0.777,0.077-1.553,0.23-2.328c0.153-0.775,0.374-1.499,0.662-2.172
				c0.288-0.672,0.638-1.273,1.047-1.801c0.41-0.528,0.868-0.938,1.373-1.229c0.504-0.291,0.961-0.414,1.371-0.366
				c0.41,0.049,0.759,0.228,1.048,0.54c0.288,0.312,0.512,0.746,0.669,1.299c0.158,0.554,0.236,1.184,0.236,1.892v0.937
				c0,0.152-0.036,0.305-0.108,0.458c-0.071,0.153-0.157,0.257-0.257,0.314l-4.514,2.606c0,0.319,0.042,0.576,0.129,0.769
				c0.085,0.194,0.2,0.332,0.344,0.416c0.143,0.083,0.311,0.111,0.5,0.085c0.189-0.026,0.383-0.096,0.582-0.211
				c0.287-0.166,0.522-0.346,0.702-0.541c0.181-0.195,0.328-0.395,0.446-0.601c0.099-0.169,0.18-0.291,0.243-0.369
				c0.063-0.078,0.148-0.148,0.257-0.21l1.081-0.625c0.1-0.057,0.188-0.052,0.264,0.014c0.076,0.067,0.11,0.179,0.102,0.337
				c-0.009,0.199-0.079,0.49-0.209,0.87c-0.132,0.381-0.328,0.792-0.589,1.234c-0.262,0.443-0.584,0.878-0.966,1.307
				c-0.383,0.43-0.827,0.79-1.331,1.081c-0.505,0.291-0.963,0.421-1.373,0.387c-0.409-0.034-0.759-0.218-1.047-0.551
				c-0.288-0.333-0.509-0.799-0.662-1.397C400.098,125.012,400.021,124.296,400.021,123.464z M403.333,118.431
				c-0.263,0.151-0.484,0.338-0.67,0.563c-0.185,0.225-0.34,0.467-0.466,0.727c-0.126,0.259-0.224,0.523-0.29,0.791
				c-0.068,0.268-0.111,0.511-0.129,0.729l3.054-1.763c-0.018-0.198-0.052-0.397-0.101-0.597c-0.05-0.201-0.131-0.362-0.243-0.483
				c-0.112-0.123-0.262-0.189-0.446-0.201C403.858,118.187,403.621,118.265,403.333,118.431z"/>
			<path style="fill:#FAFAFA;" d="M409.887,122.617c0,0.152-0.035,0.305-0.107,0.458c-0.072,0.152-0.157,0.257-0.257,0.314
				l-1.027,0.593c-0.099,0.057-0.185,0.051-0.256-0.018c-0.073-0.069-0.108-0.181-0.108-0.333v-13.651
				c0-0.152,0.035-0.305,0.108-0.457c0.071-0.153,0.157-0.258,0.256-0.315l1.027-0.593c0.1-0.057,0.185-0.051,0.257,0.019
				c0.072,0.068,0.107,0.18,0.107,0.332V122.617z"/>
			<path style="fill:#FAFAFA;" d="M413.51,120.525c0,0.152-0.036,0.305-0.108,0.458c-0.072,0.152-0.157,0.257-0.257,0.314
				l-1.027,0.593c-0.099,0.057-0.185,0.051-0.256-0.018c-0.073-0.069-0.108-0.181-0.108-0.333v-13.651
				c0-0.152,0.035-0.305,0.108-0.457c0.071-0.153,0.157-0.258,0.256-0.315l1.027-0.593c0.1-0.057,0.185-0.051,0.257,0.019
				c0.072,0.068,0.108,0.18,0.108,0.332V120.525z"/>
			<path style="fill:#FAFAFA;" d="M418.47,107.195c0.495-0.286,0.943-0.428,1.345-0.423c0.4,0.005,0.748,0.129,1.041,0.376
				c0.293,0.248,0.526,0.598,0.703,1.051c0.176,0.453,0.277,0.991,0.304,1.613c0.009,0.12,0.014,0.277,0.014,0.472s0,0.388,0,0.582
				c0,0.194,0,0.385,0,0.572s-0.005,0.347-0.014,0.477c-0.036,0.659-0.14,1.315-0.311,1.969c-0.171,0.653-0.403,1.27-0.696,1.848
				c-0.293,0.578-0.641,1.101-1.041,1.569c-0.401,0.467-0.85,0.844-1.345,1.13c-0.496,0.286-0.944,0.427-1.345,0.423
				c-0.401-0.005-0.748-0.127-1.04-0.367c-0.294-0.24-0.525-0.588-0.696-1.044c-0.172-0.456-0.275-0.993-0.312-1.609
				c-0.009-0.12-0.016-0.272-0.021-0.457c-0.004-0.185-0.006-0.374-0.006-0.568c0-0.194,0.002-0.389,0.006-0.586
				c0.005-0.197,0.012-0.361,0.021-0.491c0.027-0.653,0.129-1.309,0.305-1.965c0.175-0.656,0.409-1.276,0.703-1.863
				c0.292-0.585,0.639-1.11,1.04-1.578C417.526,107.857,417.974,107.481,418.47,107.195z M420.106,110.932
				c-0.027-0.414-0.093-0.734-0.196-0.958c-0.104-0.225-0.232-0.376-0.385-0.454c-0.153-0.078-0.32-0.097-0.5-0.055
				c-0.181,0.043-0.365,0.118-0.555,0.228c-0.189,0.109-0.374,0.247-0.554,0.413c-0.181,0.167-0.347,0.378-0.5,0.632
				c-0.153,0.255-0.282,0.555-0.386,0.899c-0.104,0.344-0.168,0.739-0.195,1.184c-0.01,0.117-0.017,0.259-0.02,0.428
				c-0.005,0.17-0.007,0.344-0.007,0.524s0.002,0.356,0.007,0.526c0.004,0.171,0.011,0.303,0.02,0.395
				c0.027,0.414,0.092,0.734,0.195,0.959c0.104,0.224,0.232,0.375,0.386,0.454c0.153,0.078,0.319,0.096,0.5,0.054
				c0.18-0.042,0.365-0.117,0.554-0.226c0.189-0.109,0.374-0.247,0.555-0.414c0.18-0.166,0.347-0.377,0.5-0.631
				c0.153-0.255,0.281-0.555,0.385-0.899c0.104-0.344,0.169-0.739,0.196-1.185c0.009-0.102,0.014-0.24,0.014-0.414
				c0-0.173,0-0.35,0-0.53c0-0.181,0-0.354,0-0.521C420.12,111.174,420.115,111.038,420.106,110.932z"/>
			<path style="fill:#FAFAFA;" d="M424.89,111.562c0.099-0.057,0.185-0.051,0.256,0.019c0.072,0.07,0.108,0.18,0.108,0.333v1.831
				c0,0.152-0.036,0.305-0.108,0.458c-0.071,0.152-0.157,0.257-0.256,0.314l-1.163,0.671c-0.099,0.057-0.184,0.051-0.256-0.018
				c-0.073-0.069-0.108-0.181-0.108-0.333v-1.831c0-0.153,0.035-0.305,0.108-0.458c0.071-0.153,0.157-0.258,0.256-0.315
				L424.89,111.562z M425.187,109.58c0,0.153-0.036,0.306-0.108,0.458c-0.072,0.153-0.157,0.258-0.256,0.315l-1.028,0.593
				c-0.099,0.057-0.184,0.051-0.256-0.019c-0.073-0.068-0.108-0.18-0.108-0.333v-9.238c0-0.153,0.035-0.305,0.108-0.458
				c0.072-0.153,0.157-0.258,0.256-0.315l1.028-0.593c0.099-0.057,0.184-0.051,0.256,0.019c0.072,0.069,0.108,0.18,0.108,0.333
				V109.58z"/>
		</g>
	</g>
</g>
<g id="Character_1_">
	<g id="Character">
		<path id="XMLID_2840_" style="fill:#FFA8A7;" d="M406.317,211.657c7.153,0,10.743,2.376,13.732,8.906
			c2.86,6.246,11.958,24.117,11.517,28.512c-0.44,4.396-18.705,23.051-18.705,23.051l-5.21-6.219l11.297-18.655l-11.084-15.717
			L406.317,211.657z"/>
		<path style="fill:#455A64;" d="M406.928,211.671c0,0,7.023-0.726,10.287,3.416c3.264,4.142,6.487,12.584,6.487,12.584
			s-3.26,9.38-11.923,10.537C403.115,239.365,406.928,211.671,406.928,211.671z"/>
		<g id="Character_11_">
			<g id="XMLID_1152_">
				<g id="XMLID_2826_">
					<g id="XMLID_2838_">
						<path id="XMLID_2839_" style="fill:#263238;" d="M388.851,404.001c0,0,0.811,2.417,1.248,4.53
							c0.347,1.68,0.845,4.488,0.247,5.751c-0.599,1.264-2.933,2.079-6.553,2.052c-2.344-0.018-5.998,1.547-8.499,2.919
							c-2.584,1.417-7.957,1.981-10.689,1.666c-3.221-0.371-6.557-2.207-7.077-3.518c-0.521-1.311-0.96-3.107,7.76-5.85
							c0.072-0.023,10.551-3.379,14.223-7.362L388.851,404.001z"/>
					</g>
					<path style="fill:#FFA8A7;" d="M388.851,400.998l-9.341,0.188v0.693c0,1.626-0.777,3.163-2.112,4.092
						c-4.534,3.154-12.05,5.561-12.111,5.58c-0.496,0.156-0.957,0.308-1.396,0.458c-1.512,1.2-0.232,3.244,3.369,3.559
						c3.601,0.315,14.805-3.393,17.286-4.567c2.481-1.175,4.304-3.522,4.304-6.763C388.841,403.06,388.851,400.998,388.851,400.998z
						"/>
					<g id="XMLID_2832_">
						<path id="XMLID_2833_" style="fill:#263238;" d="M413.468,390.452c0.66,0.266,0.794,1.518,0.827,4.001
							c0.025,1.88,0.344,5.167-1.911,5.762c-2.255,0.595-5.523,0.174-6.908-1.634c-1.729-2.256-2.885-4.232-5.365-6.994
							c-2.151-2.396-4.488-4.642-5.292-7.943c-0.727-2.984-0.019-4.251,2.061-5.058c1.972-0.765,3.957-0.144,6.837,2.215
							c0.987,0.596,1.876,1.123,2.559,1.331C408.169,382.707,412.808,390.186,413.468,390.452z"/>
					</g>
					<g id="XMLID_2830_">
						<path id="XMLID_2831_" style="fill:#FFA8A7;" d="M413.531,388.155l-0.084,3.046c0,0-2.075,3.988-7.837,0
							c-0.128-0.297-0.644-6.19-0.644-6.19L413.531,388.155z"/>
					</g>
					<path id="XMLID_2829_" style="fill:#FFA8A7;" d="M406.275,382.132c-0.683-0.207-1.572-0.735-2.559-1.33l0,0
						c-2.324-0.732-7.219,0.115-5.013,3.433c2.372,3.568,4.814,5.421,6.907,6.966c2.607,1.263,3.52-0.302,3.52-0.302l-0.922-7.143
						C407.457,382.912,406.771,382.283,406.275,382.132z"/>
					<g id="XMLID_2827_">
						<path id="XMLID_2828_" style="fill:#FFA8A7;" d="M418.95,346.601c0-10.055-2.245-14.483-2.245-14.483
							s1.102-13.827,2.245-26.771c2.718-30.771,0.126-32.226-4.231-42.755c0,0-37.388-5.046-39.797,11.006
							c-5.276,35.162-3.534,59.317-3.185,66.45c0.349,7.133,1.205,11.332,3.359,26.274c1.639,11.369,4.415,35.532,4.415,35.532
							c5.18,2.932,8.983,7.115,9.341-0.353c0.357-7.468,5.33-31.079,5.215-39.301c-0.14-10.04-2.677-18.011-2.677-18.011
							s3.357-32.771,4.216-37.979c0,0,0.951,10.449,1.3,17.582c0.349,7.132,2.313,13.988,4.046,27.264
							c1.503,11.517,4.001,35.565,4.001,35.565c5.181,2.933,8.107,8.06,8.579,1.534C414.003,381.629,418.95,356.419,418.95,346.601z
							"/>
					</g>
					<path id="XMLID_1096_" style="opacity:0.1;" d="M395.605,306.21l2.151-13.514c0,0,5.83-0.398,12.207-4.174
						c0,0-2.683,3.984-9.796,5.643l-2.196,15.656l-0.885,16.397L395.605,306.21z"/>
				</g>
				<g id="XMLID_2819_">
					<g id="XMLID_2824_">
						<polygon id="XMLID_2825_" style="fill:#FFA8A7;" points="389.594,205.114 391.043,220.207 404.532,219.368 403.453,202.63 
													"/>
					</g>
				</g>
				<g id="XMLID_2808_">
					<g id="XMLID_2809_">
						<path id="XMLID_2818_" style="fill:#27DEBF;" d="M416.654,218.059c-1.371-3.997-4.166-6.334-10.337-6.402l-2.277,0.07
							c-0.433,2.225-7.077,4.03-13.643,1.752c-0.925,0.234-3.464,0.696-4.895,0.883l-3.142,0.451
							c-4.781,1.537-6.893,9.697-7.352,22.631c-0.156,4.393,0.341,9.272,1.259,18.37c-0.506,13.194-1.346,24.297-1.346,24.297
							s7.939,3.346,24.163,1.251c14.518-1.875,18.985-9.246,18.485-8.167c0,0-1.655-7.898-5.323-16.471l-0.993-5.326
							C418.899,232.936,418.688,223.989,416.654,218.059z"/>
					</g>
				</g>
				<path style="fill:#455A64;" d="M411.254,251.397c0,0-0.9,6.245-12.527,7.418c-17.018,1.716-22.459-3.001-22.459-3.001
					l-0.21,4.973c-1.898,10.4-7.067,36.112-6.752,47.101c0,0,3.627,1.387,6.642-4.887c0,0-0.41,4.89,6.788,7.558
					c5.952,2.206,12.296-0.785,14.157-1.207l0.171-1.376c0,0,13.788,3.5,22.564-4.26c0,0,3.076-17.266,0.008-29.575
					c-1.948-7.818-5.568-13.922-7.389-17.416L411.254,251.397z"/>
				<path style="fill:#37474F;" d="M411.209,307.976c-4.026,0.43-8.85-1.028-9.067-2.63c-0.217-1.604,2.749-14.399,2.749-14.399
					c7.134-1.748,10.831-7.294,10.831-7.294c-6.504,4.612-15.319,3.937-15.319,3.937l-3.34,20.385
					C397.063,307.975,404.029,309.739,411.209,307.976z"/>
				<path style="fill:#37474F;" d="M411.254,251.397c0,0-1.386,4.31-9.112,6.239c-15.155,3.782-25.874-1.822-25.874-1.822
					s-0.377,2.743-0.262,5.261c0,0,12.085,5.844,23.936,2.98c11.851-2.864,12.443-6.913,12.443-6.913
					S411.767,253.351,411.254,251.397z"/>
				<path id="XMLID_2806_" style="fill:#FFA8A7;" d="M385.502,214.361c-6.335,0.782-11.108,2.263-14.107,8.016
					c-5.546,10.638-10.786,20.081-14.474,23.965c-3.94,4.149-19.266,9.366-22.906,8.787c-3.641-0.579-7.059-4.386-8.935-3.322
					c-1.875,1.064,2.454,3.801,2.231,4.699c-0.222,0.898-7.016-0.074-10.137-2.24c-3.121-2.165-4.948,4.055-0.913,8.704
					c4.034,4.649,11.472,5.888,19.706,4.264c8.234-1.624,23.64-5.368,29.617-10.856c7.843-7.201,11.318-12.264,15.134-18.172
					C391.045,225.53,385.502,214.361,385.502,214.361z"/>
				<path style="fill:#455A64;" d="M386.476,214.219c0,0-7.799-0.581-11.554,3.188c-3.755,3.769-7.166,10.547-7.166,10.547
					s2.242,7.204,12.962,10.254c0,0,3.796-2.342,5.757-7.909C388.437,224.732,387.86,216.356,386.476,214.219z"/>
				<g id="XMLID_1161_">
					<g id="XMLID_2802_">
						<path id="XMLID_2805_" style="fill:#263238;" d="M372.318,176.092c-0.1-0.71-0.095-1.431,0.033-2.138
							c0.332-1.831,1.502-3.492,3.114-4.422c1.612-0.93,3.636-1.11,5.387-0.481c-0.588-2.75,0.997-5.807,3.583-6.912
							c1.956-0.835,4.247-0.59,6.204,0.244c1.12,0.477,2.219,1.204,2.704,2.32c1.356-2.273,4.13-3.611,6.752-3.257
							c2.623,0.354,4.943,2.379,5.648,4.93c2.049-0.457,4.952,0.456,5.868,2.496c1.043,2.322-0.235,5.191,0.245,7.625
							c0.31,1.57,0.986,3.051,1.278,4.646c0.325,1.775,0.431,3.584,0.502,5.384c0.29,7.451-17.005,12.296-16.663,17.404
							c-3.073-3.739-6.146-7.479-9.219-11.218c0-0.467-1.302-1.628-1.596-2.023c-0.552-0.739-1.042-1.533-1.551-2.306
							c-1.638-2.492-3.739-3.802-6.355-5.081c-1.778-0.87-3.415-2.097-4.544-3.724C372.99,178.543,372.493,177.335,372.318,176.092z
							"/>
					</g>
					<g id="XMLID_2800_">
						<path id="XMLID_2801_" style="fill:#F28F8F;" d="M379.587,188.552c0,0-2.987,4.439-2.598,4.908
							c0.39,0.469,2.289,0.969,2.289,0.969L379.587,188.552z"/>
					</g>
					<g id="XMLID_2798_">
						<path id="XMLID_2799_" style="fill:#FFA8A7;" d="M388.715,174.487c-2.904,1.475-7.922,4.2-9.214,14.713
							c-1.324,10.793,1.12,14.543,2.617,15.958c1.011,0.954,6.225,1.301,8.945,0.471c3.403-1.039,10.776-4.62,14.233-10.19
							c4.066-6.554,4.906-15.289,0.212-18.713C398.904,171.907,391.173,173.239,388.715,174.487z"/>
					</g>
					<g id="XMLID_2796_">
						<path id="XMLID_2797_" style="fill:#263238;" d="M387.441,174.168c-1.193,0.509-2.342,1.011-3.379,1.946
							c-0.486,0.438-0.938,0.935-1.196,1.536c-0.233,0.543-0.297,1.149-0.243,1.738c0.149,1.613,1.229,3.106,2.714,3.753
							c-0.784,1.06-1.06,2.479-0.731,3.756c0.393,1.525,1.549,2.718,2.661,3.834c0.065,0.065,0.134,0.133,0.221,0.161
							c0.165,0.052,0.335-0.048,0.478-0.144c1.824-1.219,2.95-3.326,5.529-2.48c3.383,1.11,3.073,5.543,0.411,7.809
							c-2.663,2.266-5.245,1.095-5.245,1.095s0.091,5.447,4.829,7.604c0,0,5.264,1.683,10.109,0.121
							c1.785-2.265,4.778-5.165,7.243-7.755c8.121-8.534,8.583-20.933-3.389-24.85c-0.413-0.135-0.829-0.258-1.249-0.37
							c-3.829-1.02-7.899-1.076-11.77-0.253c-1.936,0.412-3.826,1.044-5.615,1.892C388.356,173.779,387.895,173.974,387.441,174.168
							z"/>
					</g>
					<path id="XMLID_1162_" style="fill:#263238;" d="M387.056,194.534c-1.327-0.471-2.014-1.91-1.535-3.215
						c0.479-1.304,1.944-1.979,3.271-1.508L387.056,194.534z"/>
				</g>
			</g>
		</g>
	</g>
</g>
</svg>
